# xmcd
#
# Track frame offsets:
#	150
#	22591
#	46193
#	65621
#	91936
#	111540
#	131055
#	152659
#	169398
#	193839
#
# Disc length: 2823 seconds
#
# Revision: 1
# Processed by: cddbd v1.5.2PL0 Copyright (c) Steve Scherf et al.
# Submitted via: EasyCDDAExtractor 8.2.3.1
#
DISCID=840b050a
DTITLE=Koko Taylor - Jump For Joy
DYEAR=1990
DGENRE=Blues
TTITLE0=Spår Can't Let Go
TTITLE1=Stop Watching Your Enemies
TTITLE2=Hey Baby
TTITLE3=Tired Of That
TTITLE4=It's A Dirty Job
TTITLE5=Jump For Joy
TTITLE6=Time Will Tell
TTITLE7=The Eyes Don't Lie
TTITLE8=Fishing Trip
TTITLE9=I Don't Want No Leftovers
EXTD=
EXTT0=
EXTT1=
EXTT2=
EXTT3=
EXTT4=
EXTT5=
EXTT6=
EXTT7=
EXTT8=
EXTT9=
PLAYORDER=
